<svg width="110" height="110" viewBox="0 0 110 110" fill="none" xmlns="http://www.w3.org/2000/svg">
  <path d="M55 110C85.3757 110 110 85.3757 110 55C110 24.6243 85.3757 0 55 0C24.6243 0 0 24.6243 0 55C0 85.3757 24.6243 110 55 110Z" fill="#002313" fill-opacity="0.1"/>
  <path d="M55 100C79.8528 100 100 79.8528 100 55C100 30.1472 79.8528 10 55 10C30.1472 10 10 30.1472 10 55C10 79.8528 30.1472 100 55 100Z" fill="#002313" fill-opacity="0.15"/>
  <path d="M55 90C74.33 90 90 74.33 90 55C90 35.67 74.33 20 55 20C35.67 20 20 35.67 20 55C20 74.33 35.67 90 55 90Z" fill="#002313" fill-opacity="0.2"/>
</svg> 